<svg width="51" height="50" viewBox="0 0 51 50" fill="none" xmlns="http://www.w3.org/2000/svg">
<rect x="0.969238" width="49.9615" height="50" rx="10" fill="#C4C4C4" fill-opacity="0.1"/>
<path d="M37.1912 22.5C37.1912 31.25 25.9498 38.75 25.9498 38.75C25.9498 38.75 14.7085 31.25 14.7085 22.5C14.7085 19.5163 15.8928 16.6548 18.001 14.545C20.1092 12.4353 22.9685 11.25 25.9498 11.25C28.9312 11.25 31.7905 12.4353 33.8987 14.545C36.0068 16.6548 37.1912 19.5163 37.1912 22.5Z" stroke="#17C2EC" stroke-width="2" stroke-linecap="round" stroke-linejoin="round"/>
<path d="M25.9498 26.25C28.0192 26.25 29.6969 24.5711 29.6969 22.5C29.6969 20.4289 28.0192 18.75 25.9498 18.75C23.8803 18.75 22.2026 20.4289 22.2026 22.5C22.2026 24.5711 23.8803 26.25 25.9498 26.25Z" stroke="#17C2EC" stroke-width="2" stroke-linecap="round" stroke-linejoin="round"/>
</svg>
