<svg width="221" height="50" viewBox="0 0 221 50" fill="none" xmlns="http://www.w3.org/2000/svg">
<path d="M208.5 4.1665H202.25C199.487 4.1665 196.837 5.26397 194.884 7.21748C192.93 9.17098 191.833 11.8205 191.833 14.5832V20.8332H185.583V29.1665H191.833V45.8332H200.166V29.1665H206.416L208.5 20.8332H200.166V14.5832C200.166 14.0306 200.386 13.5007 200.777 13.11C201.167 12.7193 201.697 12.4998 202.25 12.4998H208.5V4.1665Z" stroke="white" stroke-width="2" stroke-linecap="round" stroke-linejoin="round"/>
<path d="M167.916 6.24995C165.921 7.6572 163.712 8.73351 161.375 9.43745C160.12 7.99477 158.452 6.97223 156.598 6.50813C154.743 6.04404 152.79 6.16078 151.004 6.84256C149.218 7.52435 147.684 8.73829 146.61 10.3202C145.536 11.9021 144.974 13.7757 145 15.6875V17.7708C141.338 17.8657 137.711 17.0537 134.439 15.4071C131.168 13.7605 128.355 11.3304 126.25 8.33329C126.25 8.33329 117.916 27.0833 136.666 35.4166C132.376 38.3291 127.265 39.7894 122.083 39.5833C140.833 50 163.75 39.5833 163.75 15.625C163.748 15.0446 163.692 14.4658 163.583 13.8958C165.709 11.7989 167.21 9.15144 167.916 6.24995V6.24995Z" stroke="white" stroke-width="2" stroke-linecap="round" stroke-linejoin="round"/>
<path d="M46.9582 13.3752C46.7107 12.3864 46.2067 11.4805 45.4971 10.7489C44.7874 10.0173 43.8973 9.48596 42.9166 9.2085C39.3332 8.3335 24.9999 8.3335 24.9999 8.3335C24.9999 8.3335 10.6666 8.3335 7.08322 9.29183C6.10249 9.5693 5.21234 10.1007 4.50269 10.8323C3.79305 11.5639 3.28903 12.4698 3.04156 13.4585C2.38575 17.0951 2.06496 20.7841 2.08322 24.4793C2.05985 28.2023 2.38065 31.9195 3.04156 35.5835C3.31439 36.5415 3.82969 37.413 4.53769 38.1137C5.24568 38.8144 6.12243 39.3206 7.08322 39.5835C10.6666 40.5418 24.9999 40.5418 24.9999 40.5418C24.9999 40.5418 39.3332 40.5418 42.9166 39.5835C43.8973 39.306 44.7874 38.7747 45.4971 38.0431C46.2067 37.3115 46.7107 36.4056 46.9582 35.4168C47.609 31.8076 47.9297 28.1467 47.9166 24.4793C47.9399 20.7563 47.6191 17.0391 46.9582 13.3752V13.3752Z" stroke="white" stroke-width="2" stroke-linecap="round" stroke-linejoin="round"/>
<path d="M20.3125 31.2915L32.2917 24.479L20.3125 17.6665V31.2915Z" stroke="white" stroke-width="2" stroke-linecap="round" stroke-linejoin="round"/>
<path d="M95.417 4.1665H74.5837C68.8307 4.1665 64.167 8.8302 64.167 14.5832V35.4165C64.167 41.1695 68.8307 45.8332 74.5837 45.8332H95.417C101.17 45.8332 105.834 41.1695 105.834 35.4165V14.5832C105.834 8.8302 101.17 4.1665 95.417 4.1665Z" stroke="white" stroke-width="2" stroke-linecap="round" stroke-linejoin="round"/>
<path d="M93.3334 23.6876C93.5905 25.4215 93.2943 27.1923 92.487 28.7481C91.6797 30.3039 90.4024 31.5656 88.8368 32.3536C87.2711 33.1417 85.4968 33.416 83.7663 33.1375C82.0357 32.859 80.437 32.042 79.1976 30.8026C77.9582 29.5631 77.1411 27.9645 76.8627 26.2339C76.5842 24.5034 76.8585 22.7291 77.6466 21.1634C78.4346 19.5978 79.6963 18.3204 81.2521 17.5131C82.8079 16.7059 84.5787 16.4097 86.3125 16.6668C88.0811 16.9291 89.7185 17.7532 90.9827 19.0174C92.247 20.2817 93.0711 21.9191 93.3334 23.6876Z" stroke="white" stroke-width="2" stroke-linecap="round" stroke-linejoin="round"/>
<path d="M96.458 13.5415H96.4788" stroke="white" stroke-width="2" stroke-linecap="round" stroke-linejoin="round"/>
</svg>
