<svg width="76" height="77" viewBox="0 0 76 77" fill="none" xmlns="http://www.w3.org/2000/svg">
<g filter="url(#filter0_d_3_12339)">
<rect x="2.79688" y="0.590454" width="69.8545" height="69.8545" rx="20.9563" fill="#C4C4C4" fill-opacity="0.1"/>
<path d="M42.2981 40.642V17.7006C42.2981 16.3497 41.7614 15.0542 40.8062 14.0989C39.851 13.1437 38.5554 12.6071 37.2045 12.6071C35.8536 12.6071 34.5581 13.1437 33.6028 14.0989C32.6476 15.0542 32.111 16.3497 32.111 17.7006V40.642C30.4755 41.7347 29.2348 43.3245 28.5721 45.1765C27.9094 47.0284 27.8599 49.0444 28.4309 50.9267C29.0019 52.8089 30.163 54.4577 31.7429 55.6294C33.3228 56.8011 35.2376 57.4337 37.2045 57.4337C39.1715 57.4337 41.0863 56.8011 42.6662 55.6294C44.246 54.4577 45.4072 52.8089 45.9782 50.9267C46.5491 49.0444 46.4996 47.0284 45.8369 45.1765C45.1743 43.3245 43.9336 41.7347 42.2981 40.642Z" stroke="white" stroke-width="2.99376" stroke-linecap="round" stroke-linejoin="round"/>
</g>
<defs>
<filter id="filter0_d_3_12339" x="0.00269628" y="0.590454" width="75.4428" height="75.4428" filterUnits="userSpaceOnUse" color-interpolation-filters="sRGB">
<feFlood flood-opacity="0" result="BackgroundImageFix"/>
<feColorMatrix in="SourceAlpha" type="matrix" values="0 0 0 0 0 0 0 0 0 0 0 0 0 0 0 0 0 0 127 0" result="hardAlpha"/>
<feOffset dy="2.79418"/>
<feGaussianBlur stdDeviation="1.39709"/>
<feComposite in2="hardAlpha" operator="out"/>
<feColorMatrix type="matrix" values="0 0 0 0 0 0 0 0 0 0 0 0 0 0 0 0 0 0 0.1 0"/>
<feBlend mode="normal" in2="BackgroundImageFix" result="effect1_dropShadow_3_12339"/>
<feBlend mode="normal" in="SourceGraphic" in2="effect1_dropShadow_3_12339" result="shape"/>
</filter>
</defs>
</svg>
